Coordinates
version=1
nRows=17
nColumns=17
inDegrees=yes

Units are S.I. units (second, meters, Newtons, ...)
If the header above contains a line with 'inDegrees', this indicates whether rotational values are in degrees (yes) or radians (no).

endheader
time	pelvis_list	pelvis_rotation	pelvis_tilt	pelvis_tx	pelvis_ty	pelvis_tz	hip_adduction_r	hip_rotation_r	hip_flexion_r	hip_adduction_l	hip_rotation_l	hip_flexion_l	knee_flexion_r	knee_flexion_l	ankle_dorsiflexion_r	ankle_dorsiflexion_l
      0.40000000	     -1.88409352	     -1.28338741	     -2.32610424	      0.60239635	      1.03534297	     -0.02111806	      0.56366302	     -6.82942968	     27.95804304	     -1.16273384	      1.86014041	      2.59975872	    -53.84874677	     -9.76461854	     -0.13981476	      6.05107617
      0.41700000	     -1.73196629	     -1.12834997	     -2.48877970	      0.59966489	      1.03435087	     -0.02248692	      0.64905736	     -7.35755404	     28.53725387	     -1.38539500	      1.75846332	      1.35344974	    -49.00203575	     -8.95377853	     -0.09616178	      6.41260606
      0.43300000	     -1.49941289	     -1.13634938	     -2.60073024	      0.59739845	      1.03289148	     -0.02270775	      0.77265784	     -8.02738932	     28.79126898	     -1.64413186	      1.88655540	      0.01542576	    -43.61854874	     -8.13719479	     -0.19507420	      6.84596025
      0.45000000	     -1.15146302	     -0.97251621	     -2.59064073	      0.59530250	      1.03116415	     -0.02303996	      0.85551699	     -8.97377230	     28.66773411	     -2.00388169	      1.84077432	     -1.36791165	    -37.80209900	     -7.48757555	     -0.46417389	      7.36086308
      0.46700000	     -0.67667689	     -0.83940547	     -2.70317673	      0.59288163	      1.02869087	     -0.02324318	      0.90722492	     -9.83929611	     28.53180875	     -2.49265376	      1.83331844	     -2.50038313	    -31.69283456	     -7.05160534	     -0.86022169	      7.97040933
      0.48300000	     -0.40480641	     -0.37232708	     -2.72483704	      0.59167262	      1.02631210	     -0.02303784	      1.19848372	    -10.76481046	     27.91374536	     -2.68018712	      1.48088468	     -3.97787178	    -25.20462606	     -6.26109772	     -1.24086560	      8.45124689
      0.50000000	     -0.08227512	     -0.28891391	     -2.71618632	      0.59088067	      1.02342666	     -0.02183669	      1.29935482	    -10.81455516	     27.17960451	     -2.89887276	      1.54456741	     -5.51958821	    -18.83204123	     -5.52457548	     -1.49359941	      8.99156438
      0.51700000	      0.37562872	     -0.13102984	     -2.73858935	      0.58978133	      1.01998363	     -0.02123347	      0.98015066	    -10.38565725	     26.54130268	     -3.28728946	      1.49973421	     -6.91447822	    -12.99579004	     -4.98544638	     -1.45366218	      9.56360052
      0.53300000	      0.80087022	      0.23940139	     -2.77534993	      0.58888280	      1.01623101	     -0.02086144	      0.42996266	     -9.73849266	     25.94433350	     -3.62280554	      1.20412414	     -8.17067874	     -7.87456376	     -4.71744168	     -1.07104291	     10.23995972
      0.55000000	      1.25761578	      0.19441140	     -2.75133434	      0.58855459	      1.01248311	     -0.02009236	     -0.36266894	     -8.53536924	     25.39814109	     -4.01132998	      1.29711910	     -9.60667423	     -3.68077996	     -4.29929413	     -0.47960552	     10.77286793
      0.56700000	      1.59377291	      0.22047333	     -2.77562187	      0.58772999	      1.00870397	     -0.01943446	     -1.06608632	     -7.43796868	     25.27526438	     -4.26847782	      1.26357506	    -10.71008064	     -1.00065126	     -4.40222442	      0.24508395	     11.45875479
      0.58300000	      1.89056144	      0.88936322	     -3.02180079	      0.58595840	      1.00505023	     -0.01921995	     -1.52020085	     -7.30592898	     25.60608084	     -4.41625077	      0.57674466	    -11.00346001	      0.31069405	     -5.53771625	      0.68966745	     12.39881105
      0.60000000	      1.96853148	      0.92923887	     -2.93218802	      0.58665279	      1.00239860	     -0.01731853	     -1.62680646	     -6.81504398	     25.75509275	     -4.29533380	      0.46401487	    -12.09138723	      0.14537708	     -6.05458451	      0.94509454	     12.88531558
      0.61700000	      1.88969853	      1.17145953	     -3.02362827	      0.58711077	      0.99989395	     -0.01483506	     -1.40001809	     -6.66848794	     26.42101284	     -3.93663242	      0.13333206	    -12.57941083	     -1.51081659	     -7.31519678	      0.62805500	     13.50041617
      0.63300000	      1.93836384	      1.66847376	     -3.05326287	      0.58800417	      0.99816025	     -0.01234665	     -1.27204966	     -6.83625384	     27.09290667	     -3.70226018	     -0.54559163	    -13.00187518	     -4.04807285	     -8.78923014	     -0.17727526	     13.83790939
      0.65000000	      1.89009387	      2.10581997	     -3.11529669	      0.58935760	      0.99677388	     -0.00921974	     -1.01016066	     -6.97352653	     27.79424586	     -3.37377459	     -1.26662752	    -13.27674031	     -6.97826174	    -10.48031896	     -1.36974492	     13.99652137
      0.66700000	      1.95456438	      2.46405700	     -3.16235342	      0.59114290	      0.99614145	     -0.00657711	     -0.97794317	     -7.01122038	     28.36005172	     -3.26773148	     -2.01329983	    -13.39049411	     -9.92162594	    -12.49554586	     -2.61201922	     13.77779566
